<?xml version="1.0" standalone="no"?>
<!DOCTYPE svg PUBLIC "-//W3C//DTD SVG 20010904//EN"
 "http://www.w3.org/TR/2001/REC-SVG-20010904/DTD/svg10.dtd">
<svg version="1.0" xmlns="http://www.w3.org/2000/svg"
 width="814.000000pt" height="358.000000pt" viewBox="0 0 814.000000 358.000000"
 preserveAspectRatio="xMidYMid meet">

<g transform="translate(0.000000,358.000000) scale(0.100000,-0.100000)"
fill="#000000" stroke="none">
<path d="M5530 3420 c-204 -170 -458 -574 -625 -993 l-59 -147 -66 0 c-118 0
-232 -20 -350 -61 -63 -22 -130 -42 -149 -44 -39 -4 -54 -16 -49 -41 6 -31 34
-28 147 15 59 22 136 45 172 50 65 11 269 15 269 6 0 -3 -16 -58 -36 -123 -20
-64 -48 -174 -64 -243 -15 -69 -33 -136 -40 -150 -67 -126 -325 -447 -344
-428 -5 5 8 121 19 160 11 44 -45 80 -73 46 -6 -7 -26 -50 -45 -95 -53 -125
-164 -269 -189 -244 -10 10 15 149 41 224 22 64 78 176 131 263 45 74 48 85
21 109 -27 24 -50 14 -86 -37 -38 -55 -214 -274 -285 -356 -55 -63 -152 -141
-176 -141 -7 0 18 31 56 70 165 168 360 439 360 502 0 10 -11 30 -25 43 -52
53 -131 22 -245 -94 -164 -166 -270 -347 -270 -462 0 -44 -25 -65 -65 -55 -55
14 -46 169 20 377 69 217 89 319 75 386 -10 48 -16 56 -46 69 -26 11 -44 12
-80 4 -134 -30 -273 -154 -646 -575 -161 -182 -213 -233 -225 -222 -9 10 28
108 103 272 131 290 184 448 184 553 0 46 -4 58 -30 84 -27 27 -34 29 -73 23
-117 -19 -371 -207 -599 -443 -54 -56 -98 -100 -98 -98 0 1 18 47 40 101 144
354 217 703 208 989 -6 165 -25 230 -85 288 -58 55 -98 71 -188 75 -200 10
-501 -125 -785 -354 -240 -193 -532 -520 -617 -690 -30 -61 -35 -80 -31 -118
10 -84 44 -99 162 -71 62 15 84 33 63 53 -9 9 -28 8 -80 -4 -54 -12 -70 -13
-82 -3 -59 49 75 241 389 556 311 310 554 471 824 545 92 26 205 29 247 7 102
-54 135 -177 116 -430 -17 -215 -55 -388 -137 -635 -105 -313 -184 -466 -369
-713 -260 -347 -422 -620 -433 -729 -5 -53 10 -74 44 -61 28 11 66 71 339 527
161 268 251 409 303 470 259 309 535 554 729 649 29 14 57 23 64 19 36 -23
-30 -249 -156 -535 -120 -271 -141 -345 -112 -382 12 -17 26 -21 64 -19 40 2
131 85 304 276 349 387 505 525 594 525 23 0 25 -3 25 -47 0 -59 -14 -116 -73
-304 -100 -319 -79 -489 61 -489 26 0 53 4 61 9 10 6 25 4 42 -5 34 -17 69
-18 106 -2 56 24 149 97 207 162 32 37 60 66 61 64 2 -2 -3 -32 -10 -68 -19
-87 -19 -180 0 -207 47 -68 153 -16 242 119 l27 40 18 -25 c28 -39 70 -44 122
-13 42 25 139 127 218 232 22 30 41 54 42 54 0 0 0 -71 -2 -158 -4 -177 7
-242 58 -342 40 -79 72 -114 132 -144 58 -29 106 -33 147 -12 45 24 106 98
140 171 40 86 55 100 86 79 37 -24 67 -4 120 83 93 150 203 293 227 293 4 0 8
-62 8 -138 0 -133 1 -139 24 -161 32 -30 87 -42 134 -29 49 14 100 50 199 142
44 42 84 76 88 76 4 0 20 -9 36 -21 35 -24 94 -27 135 -6 27 14 223 215 324
332 77 89 74 90 104 -40 49 -204 125 -323 244 -378 39 -18 65 -21 152 -21 91
0 113 4 170 27 72 30 214 128 241 167 10 14 21 38 25 54 7 28 6 29 -26 23 -18
-4 -59 -25 -91 -46 -71 -47 -169 -95 -228 -111 -121 -32 -237 3 -289 88 -39
64 -77 162 -108 279 -15 55 -35 108 -47 121 -32 35 -75 29 -136 -19 -28 -22
-51 -44 -51 -47 -1 -4 -18 -27 -39 -51 -38 -42 -39 -43 -62 -27 -37 25 -102
21 -139 -10 -61 -52 -81 -142 -40 -179 20 -18 20 -19 -7 -48 -47 -48 -60 -51
-94 -23 -33 28 -76 33 -112 14 -12 -6 -65 -51 -117 -100 -99 -92 -145 -121
-183 -116 -21 3 -22 7 -27 156 -5 147 -6 155 -29 173 -13 10 -31 19 -41 19
-43 0 -158 -122 -282 -301 l-17 -24 0 37 c-1 40 -22 68 -51 68 -29 0 -50 -28
-50 -68 0 -35 -2 -37 -31 -37 -40 0 -70 -38 -73 -91 -3 -49 -68 -176 -109
-210 -31 -26 -51 -25 -95 2 -33 21 -78 88 -103 153 -28 71 -37 280 -19 445
l12 111 93 165 c52 91 122 219 157 285 l63 120 180 3 c170 2 212 9 189 31 -12
12 -205 41 -273 41 -28 0 -51 2 -51 3 0 2 71 152 158 333 88 181 187 392 222
469 34 77 82 182 106 234 47 100 54 135 28 145 -30 11 -43 6 -104 -44z m-26
-167 c-53 -116 -288 -583 -407 -808 l-85 -160 -41 -3 c-50 -3 -51 -1 -10 115
68 195 266 562 400 744 52 70 175 209 185 209 2 0 -17 -44 -42 -97z m-534
-1046 c0 -7 -133 -252 -141 -261 -4 -5 -4 8 2 30 19 73 61 219 66 227 4 7 73
11 73 4z m-950 -464 c-1 -44 -337 -473 -371 -473 -28 0 49 161 117 247 110
137 254 266 254 226z m2270 -172 c-10 -21 -30 -37 -30 -26 0 14 21 45 31 45 6
0 6 -7 -1 -19z"/>
<path d="M5497 1902 c-34 -38 -13 -79 60 -116 42 -21 136 -21 168 0 48 31 26
48 -97 75 -45 9 -58 16 -60 33 -4 28 -48 33 -71 8z"/>
</g>
</svg>
