<?xml version="1.0" encoding="UTF-8"?> <!-- Generator: Adobe Illustrator 23.0.3, SVG Export Plug-In . SVG Version: 6.00 Build 0) --> <svg xmlns="http://www.w3.org/2000/svg" xmlns:xlink="http://www.w3.org/1999/xlink" id="logosvg.com" x="0px" y="0px" viewBox="0 0 400 300" style="enable-background:new 0 0 400 300;" xml:space="preserve"> <style type="text/css"> .st0{fill:#E02826;} </style> <path id="black_1_" d="M293.1,149.2H310v-30.7c0-7,4.1-12,10.1-12c5.8,0,8.8,4.1,8.8,9.9v32.8h16.8v-36c0-12.2-7.3-20.8-19.2-20.8 c-7.6,0-12.8,3.2-16.8,9.2h-0.3V94h-16.3V149.2L293.1,149.2z M260.1,92.5c-17.6,0-29.3,12.6-29.3,29.2c0,16.5,11.8,29.2,29.3,29.2 c17.6,0,29.3-12.7,29.3-29.2C289.5,105.1,277.7,92.5,260.1,92.5 M260,138.5c-8,0-12.2-6.7-12.2-16.8c0-10.2,4.2-16.8,12.2-16.8 c8,0,12.4,6.6,12.4,16.8C272.4,131.8,268,138.5,260,138.5 M182.9,149.2h47.3v-13.3h-26.8v-0.3l25.6-28.7V94h-46.1v13.3h25.9v0.3 l-25.9,28.9L182.9,149.2L182.9,149.2z M161.3,149.2h16.9V94h-16.9V149.2z M122,149.2h16.8v-25.4c0-11.5,6.9-16.6,17.5-15.2h0.3V94.1 c-0.9-0.3-1.8-0.4-3.5-0.4c-6.6,0-11,3-14.8,9.5h-0.3V94H122V149.2z M91,138.6c-7.4,0-12-4.9-12.8-12.3H118 c0.1-11.9-3-21.4-9.6-27.3c-4.6-4.3-10.8-6.7-18.6-6.7c-16.6,0-28.2,12.6-28.2,29.1c0,16.6,11,29.3,29.2,29.3c6.9,0,12.4-1.8,16.9-5 c4.9-3.3,8.3-8.2,9.3-13.1H101C99.4,136.5,96,138.6,91,138.6 M90.2,104.4c5.9,0,10,4.4,10.7,10.9H78.3 C79.6,108.7,83.2,104.4,90.2,104.4 M28,149.2h17.7L64.9,94H48l-10.8,35.5H37L26.2,94H8.8L28,149.2z M161.3,74.3h16.9v15h-16.9V74.3z "></path> <path id="black" d="M19.5,176.7h16.8v7.9h0.3c3.5-5.7,8.7-9.5,16.7-9.5c7.2,0,12.7,3.8,15.6,9.7h0.2c4.3-6.7,10.3-9.7,17.4-9.7 c12.5,0,18.8,8.5,18.8,21v36H87.8v-32.8c0-5.9-2.5-9.4-7.8-9.4c-5.6,0-8.7,4.6-8.7,11.2v31H53.6v-32.8c0-5.9-2.5-9.4-7.8-9.4 c-5.5,0-8.7,4.6-8.7,11.2v31H19.5V176.7z M109.2,204.3c0-16.5,11.6-29.2,28.4-29.2c7.9,0,14.1,2.6,18.9,6.9c6.6,6,9.8,15.7,9.7,26.9 h-39.7c1.1,7.5,5.2,12.1,12.4,12.1c4.6,0,7.7-2.1,9.2-5.5h17.2c-1.2,5-4.4,9.7-9.3,13.1c-4.6,3.2-10.3,5.1-17.3,5.1 C120.4,233.7,109.2,221,109.2,204.3z M148.4,198.4c-0.6-6.6-4.8-10.8-10.5-10.8c-6.7,0-10.2,4.2-11.3,10.8H148.4z M234.2,157.2h17.6 v15.1h-17.6V157.2z M234.2,176.7h17.6V232h-17.6V176.7z M256,216.6c0-12.2,9.7-15.9,21.2-17.4c10.4-1.3,14-2.4,14-6.2 c0-3.6-2.3-5.9-7.6-5.9c-5.6,0-8.4,2.5-9,7.1h-16.2c0.4-10.3,8.3-19,25.1-19c8.3,0,13.9,1.5,17.9,4.5c4.8,3.5,7,8.9,7,15.8v27.9 c0,4.4,0.4,6.9,1.9,7.9v0.8h-17.1c-0.9-1.2-1.4-3.3-1.8-6.2h-0.2c-3.2,4.6-8.1,7.6-16.4,7.6C263.9,233.4,256,227.5,256,216.6z M291.7,212.3v-6.6c-2.3,1.2-5.5,2.1-9.1,2.9c-6.8,1.5-9.6,3.2-9.6,7.5c0,4.4,3.2,6.2,7.6,6.2C287.2,222.2,291.7,218.2,291.7,212.3z M209.8,157.2V183h-0.3c-3.2-4.6-7.7-7.9-15.4-7.9c-14.3,0-24.2,12-24.2,29.3c0,18.5,10,29.4,24.2,29.4c7.2,0,13-3.5,16.3-9.2h0.2 v7.5h16.8v-74.9H209.8z M198.6,219.8c-6.8,0-10.9-6-10.9-15.7c0-9.3,4.1-15.8,11.1-15.8c7.7,0,11.4,6.7,11.4,16 C210.3,213.5,205.9,219.8,198.6,219.8z"></path> <polygon id="red" class="st0" points="382.7,66.2 361.9,110.9 354,94 345.5,94 358.4,121.7 365.3,121.7 391.2,66.2 391.2,66.2 "></polygon> </svg> 